<?xml version="1.0" encoding="UTF-8"?>
<svg id="Layer_2" data-name="Layer 2" xmlns="http://www.w3.org/2000/svg" viewBox="0 0 1579.41 419.7">
    <defs>
        <style>
            .cls-1 {
            fill: #5dcfdb;
            }

            .cls-2 {
            fill: #4b80ea;
            }

            .cls-3 {
            fill: #6b49e8;
            }
        </style>
    </defs>
    <g id="Layer_1-2" data-name="Layer 1">
        <g>
            <g>
                <path
                    d="m451.58,163.03c-23.08,0-42.2-7.59-57.48-22.86s-22.86-34.29-22.86-57.05,7.59-41.45,22.86-56.63,34.29-22.75,57.05-22.75c19.34,0,35.58,4.91,48.61,14.74,13.03,9.83,21.58,21.48,25.53,34.94l-29.38,7.16c-2.67-8.01-8.01-14.85-16.03-20.41-8.01-5.55-17.52-8.33-28.63-8.33-14.74,0-26.71,4.92-35.79,14.85-9.08,9.94-13.68,22.01-13.68,36.22s4.59,26.5,13.78,36.65c9.19,10.15,21.05,15.17,35.68,15.17,11.11,0,20.73-2.78,28.74-8.23,8.01-5.45,13.35-12.18,16.03-20.19l29.06,7.48c-3.74,13.35-12.18,24.89-25.21,34.61-13.03,9.72-29.06,14.53-47.97,14.53l-.32.11Z"/>
                <path
                    d="m593.35,162.92c-17.09,0-31.2-5.55-42.41-16.77-11.22-11.22-16.77-25.11-16.77-41.77s5.66-30.55,16.88-41.67c11.22-11.11,25.32-16.67,42.41-16.67s31.2,5.56,42.41,16.67c11.22,11.11,16.77,25,16.77,41.67s-5.55,30.56-16.77,41.77c-11.22,11.22-25.32,16.77-42.31,16.77h-.21Zm22.44-35.36c5.77-6.09,8.65-13.78,8.65-23.08s-2.88-16.98-8.65-23.08c-5.77-6.09-13.25-9.08-22.44-9.08s-16.67,2.99-22.44,9.08c-5.77,6.09-8.65,13.78-8.65,23.08s2.88,16.99,8.65,23.08c5.77,6.09,13.25,9.08,22.44,9.08s16.67-2.99,22.44-9.08Z"/>
                <path
                    d="m802.31,45.94c13.35,0,24.04,4.17,31.94,12.61s11.86,20.19,11.86,35.36v65.81h-28.95v-59.72c0-18.06-7.05-27.14-21.15-27.14-7.59,0-13.36,2.67-17.41,8.01-4.06,5.34-6.09,12.82-6.09,22.54v56.41h-29.16v-59.72c0-18.06-6.94-27.14-20.73-27.14-7.8,0-13.68,2.78-17.73,8.23-4.06,5.45-6.09,13.14-6.09,23.08v55.55h-28.85V49.14h28.85v13.14c8.33-10.79,19.34-16.24,32.91-16.24,15.06,0,26.17,5.56,33.33,16.67,8.76-11.11,21.26-16.67,37.39-16.67l-.1-.11Z"/>
                <path
                    d="m1001.34,45.94c13.35,0,24.04,4.17,31.94,12.61s11.86,20.19,11.86,35.36v65.81h-28.95v-59.72c0-18.06-7.05-27.14-21.15-27.14-7.58,0-13.35,2.67-17.41,8.01-4.06,5.34-6.09,12.82-6.09,22.54v56.41h-29.16v-59.72c0-18.06-6.94-27.14-20.73-27.14-7.8,0-13.68,2.78-17.73,8.23-4.06,5.45-6.09,13.14-6.09,23.08v55.55h-28.85V49.14h28.85v13.14c8.34-10.79,19.34-16.24,32.91-16.24,15.06,0,26.17,5.56,33.33,16.67,8.76-11.11,21.26-16.67,37.39-16.67l-.1-.11Z"/>
                <path
                    d="m1173.98,49.36v110.68h-28.95v-14c-8.66,11.43-20.51,17.1-35.58,17.1s-25.21-4.38-32.58-13.14c-7.37-8.76-11.11-20.83-11.11-36.11V49.36h28.85v59.08c0,8.65,2.03,15.38,6.09,20.3s9.94,7.37,17.63,7.37c8.23,0,14.74-2.88,19.55-8.76s7.26-13.78,7.26-23.72v-54.49l28.85.21Z"/>
                <path
                    d="m1262.54,46.15c14.21,0,25,4.38,32.48,13.14,7.48,8.76,11.22,20.73,11.22,35.9v64.74h-28.95v-59.29c0-8.66-2.03-15.39-5.98-20.3-3.95-4.92-9.83-7.37-17.63-7.37s-14.42,2.89-19.34,8.76c-4.92,5.88-7.37,13.68-7.37,23.4v54.7h-28.85V49.14h28.85v14c8.87-11.43,20.73-17.1,35.58-17.1v.11Z"/>
                <path
                    d="m1343.63,33.76c-4.81,0-8.87-1.6-12.18-4.91-3.31-3.31-5.02-7.37-5.02-12.18s1.71-8.66,5.02-11.86c3.31-3.2,7.37-4.81,12.18-4.81s8.87,1.6,12.18,4.81c3.31,3.21,5.02,7.16,5.02,11.86s-1.71,8.87-5.02,12.07-7.37,4.81-12.18,4.81v.21Zm-14.96,15.6h29.06v110.68h-29.06V49.36Z"/>
                <path
                    d="m1452.6,156.3c-8.76,3.52-17.41,5.23-25.85,5.23-12.28,0-21.47-3.53-27.67-10.47-6.2-6.94-9.29-16.67-9.29-29.06v-47.54h-18.59v-25.32h18.59V13.25h29.06v35.9h32.37v25.32h-32.37v47.54c0,9.29,4.49,13.99,13.57,13.99,4.7,0,9.08-1.07,13.14-3.1l7.05,23.4Z"/>
                <path
                    d="m1579.41,49.14l-66.56,156.62h-29.7l20.09-48.4-50.11-108.23h31.73l32.8,74.79,30.87-74.79h30.87Z"/>
                <path
                    d="m477.11,340.53h-68.91l-12.71,33.23h-31.09l58.65-153.2h38.99l58.87,153.2h-31.3l-12.5-33.23Zm-10.04-26.49l-24.57-64.74-24.47,64.74h49.04Z"/>
                <path
                    d="m595.8,260.08c14.21,0,25,4.38,32.48,13.14,7.48,8.76,11.22,20.73,11.22,35.9v64.74h-28.95v-59.29c0-8.66-2.03-15.39-5.98-20.3s-9.83-7.37-17.63-7.37-14.42,2.89-19.34,8.76c-4.91,5.88-7.37,13.68-7.37,23.4v54.7h-28.85v-110.68h28.85v14c8.87-11.43,20.73-17.1,35.58-17.1v.11Z"/>
                <path
                    d="m710.11,376.96c-15.49,0-28.42-5.56-38.89-16.77-10.47-11.22-15.7-25.11-15.7-41.67s5.23-30.77,15.7-41.88,23.5-16.67,39-16.67,27.03,5.45,35.58,16.45v-13.36h29.17v110.68h-29.17v-13.57c-8.55,11.11-20.41,16.67-35.58,16.67l-.11.11Zm5.02-26.07c8.87,0,16.35-3.1,22.44-9.29,6.09-6.2,9.08-13.99,9.08-23.5s-2.99-16.99-9.08-23.08c-6.09-6.09-13.57-9.19-22.44-9.19s-16.56,2.99-22.43,9.08c-5.88,6.09-8.76,13.89-8.76,23.4s2.88,17.52,8.76,23.61c5.88,6.09,13.35,9.19,22.43,9.19v-.21Z"/>
                <path d="m798.89,214.04h28.85v159.72h-28.85v-159.72Z"/>
                <path
                    d="m964.7,263.07l-66.56,156.62h-29.7l20.09-48.4-50.11-108.23h31.73l32.8,74.79,30.87-74.79h30.87Z"/>
                <path
                    d="m1047.82,370.23c-8.76,3.52-17.41,5.23-25.85,5.23-12.28,0-21.47-3.53-27.67-10.47-6.2-6.94-9.29-16.67-9.29-29.06v-47.54h-18.59v-25.32h18.59v-35.89h29.06v35.89h32.37v25.32h-32.37v47.54c0,9.29,4.49,13.99,13.57,13.99,4.7,0,9.08-1.07,13.14-3.1l7.05,23.4Z"/>
                <path
                    d="m1077.83,247.69c-4.81,0-8.87-1.6-12.18-4.92-3.31-3.31-5.02-7.37-5.02-12.18s1.71-8.65,5.02-11.86c3.31-3.21,7.37-4.81,12.18-4.81s8.87,1.6,12.18,4.81,5.02,7.16,5.02,11.86-1.71,8.87-5.02,12.07-7.37,4.81-12.18,4.81v.21Zm-14.96,15.6h29.06v110.68h-29.06v-110.68Z"/>
                <path
                    d="m1168.11,377.17c-16.99,0-30.98-5.66-42.09-16.88-11.11-11.22-16.67-25.21-16.67-41.88s5.55-30.56,16.67-41.67c11.11-11.11,25.11-16.67,41.88-16.67,14.21,0,26.18,3.74,35.9,11.22,9.72,7.48,15.81,15.81,18.27,25.11l-26.92,7.69c-1.28-5.02-4.38-9.29-9.29-12.93-4.91-3.63-10.79-5.45-17.73-5.45-8.87,0-16.13,3.21-21.69,9.51-5.55,6.3-8.33,14-8.33,23.08s2.78,16.56,8.44,23.08c5.66,6.52,12.93,9.72,21.79,9.72,6.84,0,12.71-1.71,17.74-5.23,5.02-3.52,8.12-7.69,9.4-12.5l26.92,7.48c-2.46,9.51-8.44,17.84-18.06,25.11-9.62,7.26-21.47,10.9-35.68,10.9l-.53.32Z"/>
                <path
                    d="m1284.35,376.75c-13.14,0-24.68-3.42-34.61-10.15-9.94-6.73-16.35-14.74-19.23-24.04l26.07-7.58c1.92,5.45,5.45,9.83,10.57,13.25,5.13,3.42,11.22,5.13,18.38,5.13,5.45,0,9.83-1.07,13.25-3.31,3.42-2.24,5.13-4.92,5.13-8.12,0-4.81-4.06-8.44-12.29-10.9l-28.2-8.33c-18.27-5.23-27.35-15.06-27.35-29.49,0-9.19,4.38-16.99,13.03-23.5,8.65-6.52,19.12-9.72,31.41-9.72,11.65,0,21.9,2.56,30.66,7.69,8.76,5.13,14.96,11.86,18.48,20.3l-25.64,7.48c-4.81-8.66-12.71-12.93-23.61-12.93-4.38,0-8.12.96-11.22,2.99-3.1,2.03-4.6,4.38-4.6,7.05,0,4.06,3.1,6.94,9.19,8.76l27.56,7.91c9.94,2.88,17.63,6.62,23.08,11.11,5.45,4.49,8.12,11.22,8.12,20.3,0,10.47-4.49,19.12-13.46,25.96s-20.41,10.25-34.4,10.25l-.32-.11Z"/>
            </g>
            <g>
                <path class="cls-2"
                      d="m276.15,217.19l-41.6,24.01-1.94.45.1.51c-.34.18-.67.38-1,.57l-41.79,24.14c-.87.49-1.7,1.01-2.54,1.54l-.47.31c-7.95,5.38-14.22,12.82-18.05,21.43l-.1.21c-5.1,11.37-5.9,24.12-2.36,35.84l-60.61-34.94c-4.81-3.2-8.72-7.38-11.59-12.42-5.01-8.68-6.34-18.8-3.73-28.49,2.6-9.72,8.79-17.82,17.47-22.83l130.63-75.4c11.57-6.7,25.98-6.69,37.62.02,5.68,3.28,10.43,8.02,13.72,13.73,3.3,5.69,5.04,12.18,5,18.72l-.02.55c-.15,13.19-7.34,25.45-18.74,32.04Z"/>
                <path class="cls-3"
                      d="m289.92,354.21c-1.64,2.84-3.66,5.46-6.01,7.83-7.13,7.08-16.55,10.99-26.57,10.99-3.34.02-6.65-.43-9.83-1.3-4.13-1.11-8.01-2.92-11.68-5.49l-41.47-23.92c-4.64-3.13-8.43-7.24-11.27-12.15-9.96-17.24-4.74-39.2,11.86-50.13l45.76-26.4.2-.12c11.23-5.51,24.44-5.03,35.33,1.26,5.7,3.29,10.45,8.03,13.7,13.72,2.96,5.07,4.62,10.56,4.97,16.27v50.71c0,6.67-1.74,13.1-5,18.74Z"/>
                <path class="cls-1"
                      d="m101.03,215.55c-9.32,5.39-16.59,13.37-21,23.08-5.28,11.5-6.12,24.45-2.49,36.35l-53.55-30.87.22-.38-2.33-1.05c-2.63-1.17-5.12-2.67-7.43-4.48-3.8-2.97-6.96-6.6-9.39-10.83l-.25-.44C-.01,218.38-1.26,208.44,1.3,198.88c2.62-9.71,8.81-17.81,17.49-22.82L238.46,49.25c.57-.34,1.13-.62,1.74-.94.42-.21.82-.41,1.24-.62l1-.44c.27-.14.53-.23.91-.38.7-.29,1.41-.55,2.01-.76l.36-.11c.48-.15.95-.3,1.45-.44l2-.47c.34-.07.65-.16.97-.21l3.09-.46c2.98-.31,6.01-.26,9.04.18l.4.04h.05c.6.08,1.15.19,1.68.28l.48.09c.31.07.62.12,1,.2.4.1.81.17,1.25.32,6.38,1.74,12.18,5.17,16.54,9.52l.44.44c.17.18.35.36.56.59l.44.49c.05.05.1.11.19.19l.27.32c.2.25.44.49.72.87.18.24.38.49.57.73l.28.35c.4.55.84,1.13,1.25,1.71l.14.27c.21.28.41.58.61.88.21.33.4.69.66,1.13.29.51.6,1.04.88,1.66.29.51.54,1.06.79,1.63,3.62,7.95,4.33,16.65,2.06,25.2-2.61,9.69-8.82,17.77-17.51,22.81l-162.31,93.71-3.25,2.07-9.44,5.45Z"/>
            </g>
        </g>
    </g>
</svg>
